<?xml version="1.0" encoding="UTF-8" standalone="no"?>
<!DOCTYPE svg PUBLIC "-//W3C//DTD SVG 1.1//EN" "http://www.w3.org/Graphics/SVG/1.1/DTD/svg11.dtd">
<svg width="100%" height="100%" viewBox="0 0 1640 1745" version="1.1" xmlns="http://www.w3.org/2000/svg" xmlns:xlink="http://www.w3.org/1999/xlink" xml:space="preserve" xmlns:serif="http://www.serif.com/" style="fill-rule:evenodd;clip-rule:evenodd;stroke-linejoin:round;stroke-miterlimit:2;">
    <g transform="matrix(1,0,0,1,-1123.69,-257.631)">
        <g id="V2">
            <path d="M2160.66,937.557C2160.67,935.543 2160.67,933.527 2160.67,931.511C2160.67,662.946 2070.17,415.352 1958.7,258.26C2330.28,258.26 2631.95,559.933 2631.95,931.511C2631.95,1073.94 2587.62,1206.1 2512.03,1314.94C2459.7,1141.37 2328.75,1001.75 2160.66,937.557Z" style="fill:rgb(114,0,255);"/>
            <path d="M1387.96,1332.57C1304.38,1220.41 1254.9,1081.38 1254.9,930.883C1254.9,559.305 1556.57,257.631 1928.15,257.631C1816.68,414.723 1726.17,662.317 1726.17,930.883C1726.17,935.533 1726.2,940.177 1726.26,944.815C1561.32,1014.23 1434.83,1157.21 1387.96,1332.57Z" style="fill:rgb(114,0,255);"/>
            <path d="M1379.98,1366.48C1370.14,1363.19 1360.37,1359.46 1350.67,1355.3C1160.56,1273.64 1072.52,1053 1154.18,862.896C1210.05,954.45 1316.84,1055.16 1454.24,1114.19C1465.77,1119.14 1477.37,1123.74 1489.01,1127.99C1435.98,1196.97 1397.99,1278.11 1379.98,1366.48Z" style="fill:rgb(114,0,255);"/>
            <path d="M2412.25,1123.17C2419.05,1120.51 2425.84,1117.72 2432.61,1114.82C2570.01,1055.79 2676.8,955.079 2732.67,863.524C2814.33,1053.63 2726.28,1274.27 2536.18,1355.93C2532.09,1357.68 2527.99,1359.36 2523.87,1360.96C2504.98,1272.67 2466.12,1191.76 2412.25,1123.17Z" style="fill:rgb(114,0,255);"/>
            <g transform="matrix(1,0,0,1,74.3199,144.268)">
                <circle cx="1876.78" cy="1336.55" r="521.333" style="fill:rgb(114,0,255);"/>
            </g>
        </g>
    </g>
</svg>
